<?xml version="1.0" encoding="UTF-8"?>
<svg id="Capa_1" data-name="Capa 1" xmlns="http://www.w3.org/2000/svg" width="441.76" height="83.88" viewBox="0 0 441.76 83.88">
  <g>
    <path d="m193.1,45.96h2.3l11.39,26.48h-3.62l-3.18-7.41h-11.65l-3.18,7.41h-3.44l11.39-26.48Zm5.69,16.2l-4.63-10.9-4.64,10.9h9.27Z" style="stroke-width: 0px;"/>
    <path d="m209.75,53.37h2.91l.22,3.67c1.41-2.3,4.19-4.19,7.42-4.19,5.07,0,6.89,3.53,6.89,8.26v11.34h-3.36v-11.03c0-4.28-1.68-5.7-4.46-5.7s-6.27,2.39-6.27,5.47v11.26h-3.36v-19.07Z" style="stroke-width: 0px;"/>
    <path d="m231.52,62.91c0-5.56,3.84-10.06,9.09-10.06,2.96,0,5.61,1.37,7.19,3.53v-10.42h3.36v26.48h-2.91l-.13-3.44c-1.59,2.43-4.37,3.97-7.5,3.97-5.25,0-9.09-4.5-9.09-10.06Zm16.51,0c0-4.59-2.96-7.37-6.58-7.37s-6.58,2.78-6.58,7.37,2.96,7.37,6.58,7.37,6.58-2.78,6.58-7.37Z" style="stroke-width: 0px;"/>
    <path d="m256.65,53.37h2.91l.22,3.67c1.24-2.34,4.19-4.19,7.42-4.19v3.62c-3.62-.66-7.19,1.41-7.19,4.64v11.34h-3.36v-19.07Z" style="stroke-width: 0px;"/>
    <path d="m269.5,62.77c0-6.13,4.55-9.93,9.22-9.93s8.12,3.09,8.12,7.41c0,.66-.13,1.5-.26,2.16h-13.77c-.27,3.36,1.32,7.81,7.41,7.81,2.16,0,4.81-1.06,6.27-2.47v2.96c-1.81,1.46-4.64,2.25-7.41,2.25-5.61,0-9.58-4.28-9.58-10.2Zm14.12-2.69c.4-2.56-1.64-4.59-4.77-4.59-2.69,0-5.16,1.46-5.74,4.59h10.5Z" style="stroke-width: 0px;"/>
    <path d="m290.17,71.03l.66-2.65c1.28.79,3.75,1.99,6.49,1.99,2.38,0,4.24-.84,4.24-2.96,0-1.68-1.72-2.61-4.86-3.4-4.06-1.01-5.92-3.18-5.92-5.65,0-3,2.3-5.56,6.97-5.56,3.18,0,5.92,1.59,5.92,1.59l-.66,2.56c-1.33-.88-3.36-1.55-5.25-1.55-2.6,0-3.88.97-3.88,2.52,0,1.64,1.59,2.61,4.1,3.22,4.37,1.06,6.66,3.04,6.66,5.56,0,4.02-3.04,6.31-7.41,6.31-4.1,0-7.06-1.99-7.06-1.99Z" style="stroke-width: 0px;"/>
    <path d="m316.09,70.41l13.9-21.5h-13.9v-2.96h18.23v2.03l-13.9,21.5h13.9v2.96h-18.23v-2.03Z" style="stroke-width: 0px;"/>
    <path d="m336.58,62.91c0-5.56,3.84-10.06,9.09-10.06,3.13,0,5.92,1.55,7.5,3.97l.13-3.44h2.91v19.07h-2.91l-.13-3.44c-1.59,2.43-4.37,3.97-7.5,3.97-5.25,0-9.09-4.5-9.09-10.06Zm16.51,0c0-4.59-2.96-7.37-6.58-7.37s-6.58,2.78-6.58,7.37,2.96,7.37,6.58,7.37,6.58-2.78,6.58-7.37Z" style="stroke-width: 0px;"/>
    <path d="m361.71,53.37h2.91l.13,3.44c1.59-2.43,4.37-3.97,7.5-3.97,5.25,0,9.09,4.5,9.09,10.06s-3.84,10.06-9.09,10.06c-2.96,0-5.61-1.37-7.19-3.53v11.61h-3.36v-27.68Zm16.29,9.53c0-4.59-2.96-7.37-6.58-7.37s-6.58,2.78-6.58,7.37,2.96,7.37,6.58,7.37,6.58-2.78,6.58-7.37Z" style="stroke-width: 0px;"/>
    <path d="m384.63,62.91c0-5.56,3.84-10.06,9.09-10.06,3.13,0,5.92,1.55,7.5,3.97l.13-3.44h2.91v19.07h-2.91l-.13-3.44c-1.59,2.43-4.37,3.97-7.5,3.97-5.25,0-9.09-4.5-9.09-10.06Zm16.51,0c0-4.59-2.96-7.37-6.58-7.37s-6.58,2.78-6.58,7.37,2.96,7.37,6.58,7.37,6.58-2.78,6.58-7.37Z" style="stroke-width: 0px;"/>
    <path d="m412.05,55.67h-4.28v-2.3h4.28v-5.21h3.35v5.21h4.33v2.3h-4.33v16.77h-3.35v-16.77Z" style="stroke-width: 0px;"/>
    <path d="m422.12,62.91c0-5.56,3.84-10.06,9.09-10.06,3.13,0,5.92,1.55,7.5,3.97l.13-3.44h2.91v19.07h-2.91l-.13-3.44c-1.59,2.43-4.37,3.97-7.5,3.97-5.25,0-9.09-4.5-9.09-10.06Zm16.51,0c0-4.59-2.96-7.37-6.58-7.37s-6.58,2.78-6.58,7.37,2.96,7.37,6.58,7.37,6.58-2.78,6.58-7.37Z" style="stroke-width: 0px;"/>
  </g>
  <g>
    <path d="m21.43,83.88c-8.97-5.15-12.16-8.14-12.16-22.67s-3.3-15.56-9.27-17.62v-3.3c5.98-2.06,9.27-2.88,9.27-17.62S12.47,5.15,21.43,0l2.47,3.4c-5.67,4.12-5.67,7.73-5.67,19.58,0,14.94-4.54,17.21-11.85,18.96,7.31,1.75,11.85,4.02,11.85,18.96,0,11.85,0,15.46,5.67,19.58l-2.47,3.4Z" style="fill: #118cef; stroke-width: 0px;"/>
    <path d="m72.19,72.44l-.44-7.62c-3.97,5.85-11.04,8.95-17.78,8.95-12.92,0-22.41-10.82-22.41-25.17s9.5-25.17,22.41-25.17c6.73,0,13.8,3.09,17.78,8.94l.44-7.62h11.59v47.69h-11.59Zm-14.24-39.52c-7.51,0-13.58,5.85-13.58,15.68s6.07,15.68,13.58,15.68,13.58-5.85,13.58-15.68-6.07-15.68-13.58-15.68Z" style="fill: #0c056d; stroke-width: 0px;"/>
    <path d="m92.17,72.44v-5.74l24.4-32.9h-23.08v-9.05h38.53v5.74l-24.4,32.9h24.95v9.05h-40.41Z" style="fill: #0c056d; stroke-width: 0px;"/>
    <path d="m154.32,61.21c0,14.53-3.09,17.52-12.06,22.67l-2.47-3.4c5.56-4.12,5.56-7.73,5.56-19.58,0-14.94,4.64-17.21,11.95-18.96-7.32-1.75-11.95-4.02-11.95-18.96,0-11.85,0-15.46-5.56-19.58l2.47-3.4c8.96,5.15,12.06,8.24,12.06,22.67s3.4,15.56,9.38,17.62v3.3c-5.98,2.06-9.38,2.89-9.38,17.62Z" style="fill: #118cef; stroke-width: 0px;"/>
  </g>
</svg>