<?xml version="1.0" encoding="UTF-8"?>
<svg id="Capa_1" data-name="Capa 1" xmlns="http://www.w3.org/2000/svg" width="28" height="28" viewBox="0 0 28 28">
  <path d="M5.28.84h17.43c2.64,0,4.78,2.14,4.78,4.78v16.76c0,2.64-2.14,4.78-4.78,4.78H5.28c-2.64,0-4.78-2.14-4.78-4.78V5.62C.5,2.98,2.64.84,5.28.84Z" style="stroke-width: 0px;"/>
  <path d="M13.55,16.58h-4.19l-.86,2.64c-.02.1-.12.17-.21.15h-2.11c-.13,0-.15-.07-.13-.2l3.63-10.42c.04-.12.07-.23.12-.38.05-.23.07-.48.07-.73,0-.06.04-.12.09-.13h2.91c.09,0,.14.03.14.09l4.11,11.59c.04.13,0,.18-.12.18h-2.35c-.08,0-.15-.05-.18-.13l-.93-2.68h0ZM10.02,14.3h2.85c-.07-.23-.15-.52-.26-.81-.11-.3-.2-.63-.3-.96-.12-.35-.21-.68-.33-1.03s-.21-.67-.3-1c-.09-.32-.17-.61-.25-.88h-.02c-.11.48-.22.96-.39,1.46-.17.54-.34,1.1-.52,1.67-.15.57-.33,1.1-.49,1.57h0ZM19.62,9.5c-.38,0-.73-.14-1-.4-.26-.28-.4-.66-.39-1.03,0-.39.13-.74.41-1s.63-.4,1-.4c.43,0,.77.13,1.02.4.25.27.39.63.38,1,0,.39-.13.75-.4,1.03-.26.27-.64.41-1.02.4h0ZM18.37,19.26v-8.66c0-.12.05-.15.14-.15h2.23c.1,0,.14.06.14.15v8.66c0,.13-.05.18-.14.18h-2.21c-.12,0-.17-.07-.17-.18h0Z" style="fill: #fff; stroke-width: 0px;"/>
</svg>