<svg width="20" height="20" viewBox="0 0 20 20" fill="none" xmlns="http://www.w3.org/2000/svg">
<rect width="20" height="20" rx="3" fill="black"/>
<path d="M12.616 11.2C12.664 10.804 12.7 10.408 12.7 10C12.7 9.592 12.664 9.196 12.616 8.8H14.644C14.74 9.184 14.8 9.586 14.8 10C14.8 10.414 14.74 10.816 14.644 11.2M11.554 14.536C11.914 13.87 12.19 13.15 12.382 12.4H14.152C13.5707 13.401 12.6485 14.1592 11.554 14.536ZM11.404 11.2H8.596C8.536 10.804 8.5 10.408 8.5 10C8.5 9.592 8.536 9.19 8.596 8.8H11.404C11.458 9.19 11.5 9.592 11.5 10C11.5 10.408 11.458 10.804 11.404 11.2ZM10 14.776C9.502 14.056 9.1 13.258 8.854 12.4H11.146C10.9 13.258 10.498 14.056 10 14.776ZM7.6 7.6H5.848C6.42331 6.59633 7.34488 5.83689 8.44 5.464C8.08 6.13 7.81 6.85 7.6 7.6ZM5.848 12.4H7.6C7.81 13.15 8.08 13.87 8.44 14.536C7.34717 14.159 6.42691 13.4006 5.848 12.4ZM5.356 11.2C5.26 10.816 5.2 10.414 5.2 10C5.2 9.586 5.26 9.184 5.356 8.8H7.384C7.336 9.196 7.3 9.592 7.3 10C7.3 10.408 7.336 10.804 7.384 11.2M10 5.218C10.498 5.938 10.9 6.742 11.146 7.6H8.854C9.1 6.742 9.502 5.938 10 5.218ZM14.152 7.6H12.382C12.1942 6.85687 11.9161 6.13954 11.554 5.464C12.658 5.842 13.576 6.604 14.152 7.6ZM10 4C6.682 4 4 6.7 4 10C4 11.5913 4.63214 13.1174 5.75736 14.2426C6.31451 14.7998 6.97595 15.2417 7.7039 15.5433C8.43185 15.8448 9.21207 16 10 16C11.5913 16 13.1174 15.3679 14.2426 14.2426C15.3679 13.1174 16 11.5913 16 10C16 9.21207 15.8448 8.43185 15.5433 7.7039C15.2417 6.97595 14.7998 6.31451 14.2426 5.75736C13.6855 5.20021 13.0241 4.75825 12.2961 4.45672C11.5681 4.15519 10.7879 4 10 4Z" fill="white"/>
</svg>
