<?xml version="1.0" encoding="UTF-8"?>
<svg id="Capa_1" data-name="Capa 1" xmlns="http://www.w3.org/2000/svg" width="516.52" height="98.07" viewBox="0 0 516.52 98.07">
  <defs>
    <style>
      .cls-1, .cls-2, .cls-3 {
        stroke-width: 0px;
      }

      .cls-2 {
        fill: #0c056d;
      }

      .cls-3 {
        fill: #118cef;
      }
    </style>
  </defs>
  <g>
    <path class="cls-1" d="m225.77,53.73h2.69l13.31,30.96h-4.23l-3.71-8.67h-13.62l-3.72,8.67h-4.03l13.32-30.96Zm6.66,18.94l-5.42-12.74-5.42,12.74h10.84Z"/>
    <path class="cls-1" d="m245.24,62.4h3.41l.26,4.29c1.65-2.69,4.9-4.9,8.67-4.9,5.93,0,8.05,4.13,8.05,9.65v13.26h-3.92v-12.9c0-5.01-1.96-6.66-5.21-6.66s-7.33,2.79-7.33,6.4v13.16h-3.92v-22.3Z"/>
    <path class="cls-1" d="m270.7,73.55c0-6.5,4.49-11.77,10.63-11.77,3.46,0,6.56,1.6,8.41,4.13v-12.18h3.92v30.96h-3.41l-.16-4.03c-1.86,2.84-5.11,4.64-8.77,4.64-6.14,0-10.63-5.26-10.63-11.77Zm19.3,0c0-5.37-3.46-8.62-7.69-8.62s-7.69,3.25-7.69,8.62,3.46,8.62,7.69,8.62,7.69-3.25,7.69-8.62Z"/>
    <path class="cls-1" d="m300.08,62.4h3.41l.26,4.29c1.45-2.74,4.9-4.9,8.67-4.9v4.23c-4.23-.77-8.41,1.65-8.41,5.42v13.26h-3.92v-22.3Z"/>
    <path class="cls-1" d="m315.11,73.4c0-7.17,5.32-11.61,10.78-11.61s9.5,3.61,9.5,8.67c0,.78-.16,1.76-.31,2.53h-16.1c-.31,3.92,1.55,9.14,8.67,9.14,2.53,0,5.63-1.24,7.33-2.89v3.46c-2.12,1.7-5.42,2.63-8.67,2.63-6.56,0-11.2-5-11.2-11.92Zm16.51-3.15c.46-2.99-1.91-5.37-5.58-5.37-3.15,0-6.04,1.7-6.71,5.37h12.28Z"/>
    <path class="cls-1" d="m339.27,83.05l.77-3.1c1.5.93,4.39,2.32,7.59,2.32,2.79,0,4.95-.98,4.95-3.46,0-1.96-2.01-3.05-5.68-3.98-4.75-1.18-6.92-3.71-6.92-6.61,0-3.51,2.69-6.5,8.15-6.5,3.72,0,6.92,1.86,6.92,1.86l-.77,2.99c-1.55-1.03-3.92-1.81-6.14-1.81-3.04,0-4.54,1.14-4.54,2.94,0,1.91,1.86,3.05,4.8,3.77,5.11,1.24,7.79,3.56,7.79,6.5,0,4.7-3.56,7.38-8.67,7.38-4.8,0-8.26-2.32-8.26-2.32Z"/>
    <path class="cls-1" d="m369.58,82.32l16.26-25.13h-16.26v-3.46h21.31v2.37l-16.25,25.13h16.25v3.46h-21.31v-2.37Z"/>
    <path class="cls-1" d="m393.53,73.55c0-6.5,4.49-11.77,10.63-11.77,3.66,0,6.92,1.81,8.77,4.64l.16-4.03h3.41v22.3h-3.41l-.16-4.03c-1.86,2.84-5.11,4.64-8.77,4.64-6.14,0-10.63-5.26-10.63-11.77Zm19.3,0c0-5.37-3.46-8.62-7.69-8.62s-7.69,3.25-7.69,8.62,3.46,8.62,7.69,8.62,7.69-3.25,7.69-8.62Z"/>
    <path class="cls-1" d="m422.92,62.4h3.41l.16,4.03c1.86-2.84,5.11-4.64,8.77-4.64,6.14,0,10.63,5.27,10.63,11.77s-4.49,11.77-10.63,11.77c-3.46,0-6.56-1.6-8.41-4.13v13.57h-3.92v-32.36Zm19.04,11.15c0-5.37-3.46-8.62-7.69-8.62s-7.69,3.25-7.69,8.62,3.46,8.62,7.69,8.62,7.69-3.25,7.69-8.62Z"/>
    <path class="cls-1" d="m449.71,73.55c0-6.5,4.49-11.77,10.63-11.77,3.66,0,6.92,1.81,8.77,4.64l.16-4.03h3.41v22.3h-3.41l-.16-4.03c-1.86,2.84-5.11,4.64-8.77,4.64-6.14,0-10.63-5.26-10.63-11.77Zm19.3,0c0-5.37-3.46-8.62-7.69-8.62s-7.69,3.25-7.69,8.62,3.46,8.62,7.69,8.62,7.69-3.25,7.69-8.62Z"/>
    <path class="cls-1" d="m481.78,65.09h-5v-2.69h5v-6.09h3.92v6.09h5.06v2.69h-5.06v19.61h-3.92v-19.61Z"/>
    <path class="cls-1" d="m493.55,73.55c0-6.5,4.49-11.77,10.63-11.77,3.66,0,6.92,1.81,8.77,4.64l.16-4.03h3.41v22.3h-3.41l-.16-4.03c-1.86,2.84-5.11,4.64-8.77,4.64-6.14,0-10.63-5.26-10.63-11.77Zm19.3,0c0-5.37-3.46-8.62-7.69-8.62s-7.69,3.25-7.69,8.62,3.46,8.62,7.69,8.62,7.69-3.25,7.69-8.62Z"/>
  </g>
  <g>
    <path class="cls-3" d="m25.06,98.07c-10.48-6.03-14.22-9.52-14.22-26.51S6.99,53.37,0,50.96v-3.86c6.99-2.41,10.84-3.37,10.84-20.6S14.58,6.02,25.06,0l2.89,3.98c-6.63,4.82-6.63,9.03-6.63,22.89,0,17.47-5.3,20.12-13.85,22.17,8.55,2.05,13.85,4.7,13.85,22.17,0,13.85,0,18.07,6.63,22.89l-2.89,3.98Z"/>
    <path class="cls-2" d="m84.4,84.7l-.52-8.91c-4.65,6.84-12.91,10.46-20.78,10.46-15.1,0-26.2-12.65-26.2-29.43s11.1-29.43,26.2-29.43c7.87,0,16.14,3.61,20.78,10.45l.52-8.9h13.55v55.76h-13.55Zm-16.65-46.21c-8.78,0-15.88,6.84-15.88,18.33s7.1,18.33,15.88,18.33,15.88-6.84,15.88-18.33-7.1-18.33-15.88-18.33Z"/>
    <path class="cls-2" d="m107.77,84.7v-6.71l28.53-38.47h-26.98v-10.58h45.05v6.71l-28.53,38.47h29.17v10.58h-47.24Z"/>
    <path class="cls-3" d="m180.44,71.57c0,16.99-3.62,20.48-14.1,26.51l-2.89-3.98c6.5-4.82,6.5-9.03,6.5-22.89,0-17.47,5.42-20.12,13.98-22.17-8.56-2.05-13.98-4.7-13.98-22.17,0-13.86,0-18.07-6.5-22.89l2.89-3.98c10.48,6.02,14.1,9.64,14.1,26.5s3.98,18.19,10.96,20.6v3.86c-6.99,2.41-10.96,3.37-10.96,20.6Z"/>
  </g>
</svg>