<?xml version="1.0" encoding="UTF-8"?>
<svg id="Capa_1" data-name="Capa 1" xmlns="http://www.w3.org/2000/svg" width="128" height="128" viewBox="0 0 128 128">
  <path d="M17.87,96.02c-6.85-3.94-9.29-6.22-9.29-17.31s-2.52-11.88-7.08-13.46v-2.52c4.56-1.57,7.08-2.2,7.08-13.46s2.44-13.38,9.29-17.31l1.89,2.6c-4.33,3.15-4.33,5.9-4.33,14.95,0,11.41-3.46,13.14-9.05,14.48,5.58,1.34,9.05,3.07,9.05,14.48,0,9.05,0,11.8,4.33,14.95l-1.89,2.6Z" style="fill: #118cef; stroke-width: 0px;"/>
  <path d="M56.62,87.29l-.34-5.82c-3.04,4.47-8.43,6.83-13.57,6.83-9.86,0-17.11-8.26-17.11-19.22s7.25-19.22,17.11-19.22c5.14,0,10.54,2.36,13.57,6.83l.34-5.82h8.85v36.42h-8.85ZM45.75,57.11c-5.73,0-10.37,4.47-10.37,11.97s4.64,11.97,10.37,11.97,10.37-4.47,10.37-11.97-4.64-11.97-10.37-11.97Z" style="fill: #fff; stroke-width: 0px;"/>
  <path d="M71.88,87.29v-4.38l18.63-25.12h-17.62v-6.91h29.42v4.38l-18.63,25.12h19.05v6.91h-30.85Z" style="fill: #fff; stroke-width: 0px;"/>
  <path d="M119.34,78.71c0,11.1-2.36,13.38-9.21,17.31l-1.89-2.6c4.25-3.14,4.25-5.9,4.25-14.95,0-11.41,3.54-13.14,9.13-14.48-5.59-1.34-9.13-3.07-9.13-14.48,0-9.05,0-11.8-4.25-14.95l1.89-2.6c6.84,3.93,9.21,6.29,9.21,17.31s2.6,11.88,7.16,13.46v2.52c-4.56,1.57-7.16,2.2-7.16,13.46Z" style="fill: #118cef; stroke-width: 0px;"/>
</svg>